<mxfile host="app.diagrams.net" agent="Mozilla/5.0 (X11; Linux x86_64) AppleWebKit/537.36 (KHTML, like Gecko) Chrome/132.0.0.0 Safari/537.36" version="25.0.3">
  <diagram name="Page-1" id="90a13364-a465-7bf4-72fc-28e22215d7a0">
    <mxGraphModel dx="1441" dy="663" grid="1" gridSize="10" guides="1" tooltips="1" connect="1" arrows="1" fold="1" page="1" pageScale="1.5" pageWidth="1169" pageHeight="826" background="none" math="0" shadow="0">
      <root>
        <mxCell id="0" style=";html=1;" />
        <mxCell id="1" style=";html=1;" parent="0" />
        <mxCell id="3a17f1ce550125da-2" value="&lt;div&gt;View&lt;/div&gt;" style="whiteSpace=wrap;html=1;shadow=1;fontSize=18;fillColor=#f5f5f5;strokeColor=#666666;" parent="1" vertex="1">
          <mxGeometry x="792" y="670" width="170" height="64" as="geometry" />
        </mxCell>
        <mxCell id="3a17f1ce550125da-26" style="edgeStyle=elbowEdgeStyle;rounded=0;html=1;startArrow=none;startFill=0;jettySize=auto;orthogonalLoop=1;fontSize=18;entryX=0.5;entryY=0;entryDx=0;entryDy=0;" parent="1" target="9ta0ZoeUBqeb0jHEq-jc-3" edge="1">
          <mxGeometry relative="1" as="geometry">
            <mxPoint x="877" y="734" as="sourcePoint" />
            <mxPoint x="877" y="774" as="targetPoint" />
            <Array as="points">
              <mxPoint x="877" y="754" />
              <mxPoint x="907" y="764" />
            </Array>
          </mxGeometry>
        </mxCell>
        <mxCell id="9ta0ZoeUBqeb0jHEq-jc-2" value="User" style="sketch=0;outlineConnect=0;fontColor=#232F3E;gradientColor=none;fillColor=#232F3D;strokeColor=none;dashed=0;verticalLabelPosition=bottom;verticalAlign=top;align=center;html=1;fontSize=12;fontStyle=0;aspect=fixed;pointerEvents=1;shape=mxgraph.aws4.user;" parent="1" vertex="1">
          <mxGeometry x="1066.45" y="663" width="78" height="78" as="geometry" />
        </mxCell>
        <mxCell id="9ta0ZoeUBqeb0jHEq-jc-3" value="&lt;div&gt;Controller&lt;/div&gt;" style="whiteSpace=wrap;html=1;shadow=1;fontSize=18;fillColor=#f5f5f5;strokeColor=#666666;" parent="1" vertex="1">
          <mxGeometry x="792" y="830" width="170" height="64" as="geometry" />
        </mxCell>
        <mxCell id="9ta0ZoeUBqeb0jHEq-jc-4" value="&lt;font style=&quot;font-size: 10px;&quot;&gt;Interacting with view&lt;/font&gt;" style="text;html=1;align=center;verticalAlign=middle;resizable=0;points=[];autosize=1;strokeColor=none;fillColor=none;" parent="1" vertex="1">
          <mxGeometry x="961" y="699" width="110" height="30" as="geometry" />
        </mxCell>
        <mxCell id="9ta0ZoeUBqeb0jHEq-jc-5" value="" style="endArrow=classic;startArrow=classic;html=1;rounded=0;entryX=1;entryY=0.5;entryDx=0;entryDy=0;" parent="1" source="9ta0ZoeUBqeb0jHEq-jc-2" target="3a17f1ce550125da-2" edge="1">
          <mxGeometry width="50" height="50" relative="1" as="geometry">
            <mxPoint x="840" y="840" as="sourcePoint" />
            <mxPoint x="860" y="600" as="targetPoint" />
            <Array as="points" />
          </mxGeometry>
        </mxCell>
        <mxCell id="9ta0ZoeUBqeb0jHEq-jc-6" value="action listener in controller" style="text;html=1;align=center;verticalAlign=middle;resizable=0;points=[];autosize=1;strokeColor=none;fillColor=none;" parent="1" vertex="1">
          <mxGeometry x="870" y="746" width="160" height="30" as="geometry" />
        </mxCell>
        <mxCell id="9ta0ZoeUBqeb0jHEq-jc-7" value="&lt;div&gt;Model&lt;/div&gt;" style="whiteSpace=wrap;html=1;shadow=1;fontSize=18;fillColor=#f5f5f5;strokeColor=#666666;" parent="1" vertex="1">
          <mxGeometry x="790" y="991" width="170" height="64" as="geometry" />
        </mxCell>
        <mxCell id="9ta0ZoeUBqeb0jHEq-jc-11" style="edgeStyle=elbowEdgeStyle;rounded=0;html=1;startArrow=none;startFill=0;jettySize=auto;orthogonalLoop=1;fontSize=18;entryX=0.5;entryY=0;entryDx=0;entryDy=0;" parent="1" edge="1">
          <mxGeometry relative="1" as="geometry">
            <mxPoint x="877" y="894" as="sourcePoint" />
            <mxPoint x="877" y="990" as="targetPoint" />
            <Array as="points">
              <mxPoint x="877" y="914" />
              <mxPoint x="907" y="924" />
            </Array>
          </mxGeometry>
        </mxCell>
        <mxCell id="9ta0ZoeUBqeb0jHEq-jc-12" value="Calls models set&amp;nbsp;&lt;div&gt;method to set entity objects&lt;br&gt;&lt;/div&gt;" style="text;html=1;align=center;verticalAlign=middle;resizable=0;points=[];autosize=1;strokeColor=none;fillColor=none;" parent="1" vertex="1">
          <mxGeometry x="865" y="927" width="170" height="40" as="geometry" />
        </mxCell>
        <mxCell id="9ta0ZoeUBqeb0jHEq-jc-14" value="&lt;div&gt;Observers&lt;/div&gt;" style="whiteSpace=wrap;html=1;shadow=1;fontSize=18;fillColor=#f5f5f5;strokeColor=#666666;rounded=1;" parent="1" vertex="1">
          <mxGeometry x="550" y="856" width="170" height="64" as="geometry" />
        </mxCell>
        <mxCell id="9ta0ZoeUBqeb0jHEq-jc-16" value="Database" style="shape=datastore;whiteSpace=wrap;html=1;" parent="1" vertex="1">
          <mxGeometry x="1490" y="747" width="60" height="60" as="geometry" />
        </mxCell>
        <mxCell id="9ta0ZoeUBqeb0jHEq-jc-17" value="" style="endArrow=classic;html=1;rounded=0;entryX=1;entryY=0.25;entryDx=0;entryDy=0;" parent="1" edge="1">
          <mxGeometry width="50" height="50" relative="1" as="geometry">
            <mxPoint x="1490" y="793.5" as="sourcePoint" />
            <mxPoint x="1400" y="793.5" as="targetPoint" />
          </mxGeometry>
        </mxCell>
        <mxCell id="9ta0ZoeUBqeb0jHEq-jc-21" value="CRUD operations&lt;div&gt;and create entity objects&lt;/div&gt;&lt;div&gt;&amp;nbsp;or entity DTO&lt;/div&gt;" style="text;html=1;align=center;verticalAlign=middle;resizable=0;points=[];autosize=1;strokeColor=none;fillColor=none;" parent="1" vertex="1">
          <mxGeometry x="1370" y="710" width="150" height="60" as="geometry" />
        </mxCell>
        <mxCell id="9ta0ZoeUBqeb0jHEq-jc-22" value="" style="curved=1;endArrow=classic;html=1;rounded=0;exitX=0.5;exitY=1;exitDx=0;exitDy=0;entryX=0.5;entryY=1;entryDx=0;entryDy=0;" parent="1" source="9ta0ZoeUBqeb0jHEq-jc-7" target="9ta0ZoeUBqeb0jHEq-jc-14" edge="1">
          <mxGeometry width="50" height="50" relative="1" as="geometry">
            <mxPoint x="827" y="1120" as="sourcePoint" />
            <mxPoint x="877" y="1070" as="targetPoint" />
            <Array as="points">
              <mxPoint x="877" y="1120" />
              <mxPoint x="620" y="1150" />
            </Array>
          </mxGeometry>
        </mxCell>
        <mxCell id="9ta0ZoeUBqeb0jHEq-jc-23" value="update data&lt;div&gt;notify observers&lt;/div&gt;" style="text;html=1;align=center;verticalAlign=middle;resizable=0;points=[];autosize=1;strokeColor=none;fillColor=none;" parent="1" vertex="1">
          <mxGeometry x="750" y="1070" width="110" height="40" as="geometry" />
        </mxCell>
        <mxCell id="9ta0ZoeUBqeb0jHEq-jc-24" value="" style="curved=1;endArrow=classic;html=1;rounded=0;exitX=0.5;exitY=0;exitDx=0;exitDy=0;entryX=0;entryY=0.5;entryDx=0;entryDy=0;" parent="1" source="9ta0ZoeUBqeb0jHEq-jc-14" target="3a17f1ce550125da-2" edge="1">
          <mxGeometry width="50" height="50" relative="1" as="geometry">
            <mxPoint x="600" y="810" as="sourcePoint" />
            <mxPoint x="650" y="760" as="targetPoint" />
            <Array as="points">
              <mxPoint x="650" y="810" />
              <mxPoint x="670" y="780" />
            </Array>
          </mxGeometry>
        </mxCell>
        <mxCell id="9ta0ZoeUBqeb0jHEq-jc-27" value="update view with&lt;div&gt;&amp;nbsp;data from model&lt;/div&gt;" style="text;html=1;align=center;verticalAlign=middle;resizable=0;points=[];autosize=1;strokeColor=none;fillColor=none;" parent="1" vertex="1">
          <mxGeometry x="580" y="741" width="110" height="40" as="geometry" />
        </mxCell>
        <mxCell id="qb5ehnrfZqK407qkVEqP-1" value="&lt;div&gt;Service&lt;/div&gt;" style="whiteSpace=wrap;html=1;shadow=1;fontSize=18;fillColor=#f5f5f5;strokeColor=#666666;" vertex="1" parent="1">
          <mxGeometry x="1080" y="830" width="170" height="64" as="geometry" />
        </mxCell>
        <mxCell id="qb5ehnrfZqK407qkVEqP-2" value="" style="endArrow=classic;html=1;rounded=0;exitX=1;exitY=0.25;exitDx=0;exitDy=0;entryX=0;entryY=0.25;entryDx=0;entryDy=0;" edge="1" parent="1" source="9ta0ZoeUBqeb0jHEq-jc-3" target="qb5ehnrfZqK407qkVEqP-1">
          <mxGeometry width="50" height="50" relative="1" as="geometry">
            <mxPoint x="1010" y="930" as="sourcePoint" />
            <mxPoint x="1060" y="880" as="targetPoint" />
          </mxGeometry>
        </mxCell>
        <mxCell id="qb5ehnrfZqK407qkVEqP-3" value="Calls service&amp;nbsp;&lt;span style=&quot;background-color: initial;&quot;&gt;method&amp;nbsp;&lt;/span&gt;&lt;div&gt;&lt;span style=&quot;background-color: initial;&quot;&gt;to get entity objects&lt;/span&gt;&lt;/div&gt;" style="text;html=1;align=center;verticalAlign=middle;resizable=0;points=[];autosize=1;strokeColor=none;fillColor=none;" vertex="1" parent="1">
          <mxGeometry x="947" y="810" width="140" height="40" as="geometry" />
        </mxCell>
        <mxCell id="qb5ehnrfZqK407qkVEqP-4" value="&lt;div&gt;DAO&lt;/div&gt;" style="whiteSpace=wrap;html=1;shadow=1;fontSize=18;fillColor=#f5f5f5;strokeColor=#666666;" vertex="1" parent="1">
          <mxGeometry x="1330" y="749" width="70" height="64" as="geometry" />
        </mxCell>
        <mxCell id="qb5ehnrfZqK407qkVEqP-5" value="&lt;div&gt;DAO&lt;/div&gt;" style="whiteSpace=wrap;html=1;shadow=1;fontSize=18;fillColor=#f5f5f5;strokeColor=#666666;" vertex="1" parent="1">
          <mxGeometry x="1330" y="833" width="70" height="64" as="geometry" />
        </mxCell>
        <mxCell id="qb5ehnrfZqK407qkVEqP-6" value="&lt;div&gt;DAO&lt;/div&gt;" style="whiteSpace=wrap;html=1;shadow=1;fontSize=18;fillColor=#f5f5f5;strokeColor=#666666;" vertex="1" parent="1">
          <mxGeometry x="1330" y="927" width="70" height="64" as="geometry" />
        </mxCell>
        <mxCell id="qb5ehnrfZqK407qkVEqP-7" value="" style="endArrow=classic;html=1;rounded=0;" edge="1" parent="1">
          <mxGeometry width="50" height="50" relative="1" as="geometry">
            <mxPoint x="1400" y="776.6800000000001" as="sourcePoint" />
            <mxPoint x="1490" y="776.6800000000001" as="targetPoint" />
          </mxGeometry>
        </mxCell>
        <mxCell id="qb5ehnrfZqK407qkVEqP-9" value="" style="endArrow=classic;html=1;rounded=0;entryX=0;entryY=0.25;entryDx=0;entryDy=0;" edge="1" parent="1" target="qb5ehnrfZqK407qkVEqP-4">
          <mxGeometry width="50" height="50" relative="1" as="geometry">
            <mxPoint x="1250" y="833.0000000000001" as="sourcePoint" />
            <mxPoint x="1340" y="833.0000000000001" as="targetPoint" />
          </mxGeometry>
        </mxCell>
        <mxCell id="qb5ehnrfZqK407qkVEqP-10" value="" style="endArrow=classic;html=1;rounded=0;entryX=0;entryY=0.25;entryDx=0;entryDy=0;exitX=1;exitY=0.25;exitDx=0;exitDy=0;" edge="1" parent="1" source="qb5ehnrfZqK407qkVEqP-1" target="qb5ehnrfZqK407qkVEqP-5">
          <mxGeometry width="50" height="50" relative="1" as="geometry">
            <mxPoint x="1260" y="843.0000000000001" as="sourcePoint" />
            <mxPoint x="1340" y="775" as="targetPoint" />
          </mxGeometry>
        </mxCell>
        <mxCell id="qb5ehnrfZqK407qkVEqP-11" value="" style="endArrow=classic;html=1;rounded=0;entryX=0;entryY=0.25;entryDx=0;entryDy=0;exitX=1;exitY=0.75;exitDx=0;exitDy=0;" edge="1" parent="1" source="qb5ehnrfZqK407qkVEqP-1" target="qb5ehnrfZqK407qkVEqP-6">
          <mxGeometry width="50" height="50" relative="1" as="geometry">
            <mxPoint x="1260" y="856" as="sourcePoint" />
            <mxPoint x="1340" y="859" as="targetPoint" />
          </mxGeometry>
        </mxCell>
        <mxCell id="qb5ehnrfZqK407qkVEqP-12" value="" style="endArrow=classic;html=1;rounded=0;entryX=1;entryY=1;entryDx=0;entryDy=0;exitX=0;exitY=0.75;exitDx=0;exitDy=0;" edge="1" parent="1" source="qb5ehnrfZqK407qkVEqP-6" target="qb5ehnrfZqK407qkVEqP-1">
          <mxGeometry width="50" height="50" relative="1" as="geometry">
            <mxPoint x="1320" y="980" as="sourcePoint" />
            <mxPoint x="1230" y="980" as="targetPoint" />
          </mxGeometry>
        </mxCell>
        <mxCell id="qb5ehnrfZqK407qkVEqP-13" value="" style="endArrow=classic;html=1;rounded=0;entryX=1;entryY=0.5;entryDx=0;entryDy=0;exitX=0;exitY=0.75;exitDx=0;exitDy=0;" edge="1" parent="1" source="qb5ehnrfZqK407qkVEqP-5" target="qb5ehnrfZqK407qkVEqP-1">
          <mxGeometry width="50" height="50" relative="1" as="geometry">
            <mxPoint x="1340" y="937" as="sourcePoint" />
            <mxPoint x="1260" y="856" as="targetPoint" />
          </mxGeometry>
        </mxCell>
        <mxCell id="qb5ehnrfZqK407qkVEqP-14" value="" style="endArrow=classic;html=1;rounded=0;entryX=0.991;entryY=0.13;entryDx=0;entryDy=0;exitX=0;exitY=0.75;exitDx=0;exitDy=0;entryPerimeter=0;" edge="1" parent="1" source="qb5ehnrfZqK407qkVEqP-4" target="qb5ehnrfZqK407qkVEqP-1">
          <mxGeometry width="50" height="50" relative="1" as="geometry">
            <mxPoint x="1340" y="891" as="sourcePoint" />
            <mxPoint x="1260" y="872" as="targetPoint" />
          </mxGeometry>
        </mxCell>
        <mxCell id="qb5ehnrfZqK407qkVEqP-15" value="get entity objects from DAO&lt;div&gt;or assemble entity object through DTO&lt;/div&gt;" style="text;html=1;align=center;verticalAlign=middle;resizable=0;points=[];autosize=1;strokeColor=none;fillColor=none;" vertex="1" parent="1">
          <mxGeometry x="1066.45" y="773" width="230" height="40" as="geometry" />
        </mxCell>
        <mxCell id="qb5ehnrfZqK407qkVEqP-18" value="Database" style="shape=datastore;whiteSpace=wrap;html=1;" vertex="1" parent="1">
          <mxGeometry x="1490" y="830" width="60" height="60" as="geometry" />
        </mxCell>
        <mxCell id="qb5ehnrfZqK407qkVEqP-19" value="" style="endArrow=classic;html=1;rounded=0;entryX=1;entryY=0.25;entryDx=0;entryDy=0;" edge="1" parent="1">
          <mxGeometry width="50" height="50" relative="1" as="geometry">
            <mxPoint x="1490" y="876.5" as="sourcePoint" />
            <mxPoint x="1400" y="876.5" as="targetPoint" />
          </mxGeometry>
        </mxCell>
        <mxCell id="qb5ehnrfZqK407qkVEqP-20" value="" style="endArrow=classic;html=1;rounded=0;" edge="1" parent="1">
          <mxGeometry width="50" height="50" relative="1" as="geometry">
            <mxPoint x="1400" y="859.6800000000001" as="sourcePoint" />
            <mxPoint x="1490" y="859.6800000000001" as="targetPoint" />
          </mxGeometry>
        </mxCell>
        <mxCell id="qb5ehnrfZqK407qkVEqP-21" value="Database" style="shape=datastore;whiteSpace=wrap;html=1;" vertex="1" parent="1">
          <mxGeometry x="1490" y="920" width="60" height="60" as="geometry" />
        </mxCell>
        <mxCell id="qb5ehnrfZqK407qkVEqP-22" value="" style="endArrow=classic;html=1;rounded=0;entryX=1;entryY=0.25;entryDx=0;entryDy=0;" edge="1" parent="1">
          <mxGeometry width="50" height="50" relative="1" as="geometry">
            <mxPoint x="1490" y="966.5" as="sourcePoint" />
            <mxPoint x="1400" y="966.5" as="targetPoint" />
          </mxGeometry>
        </mxCell>
        <mxCell id="qb5ehnrfZqK407qkVEqP-23" value="" style="endArrow=classic;html=1;rounded=0;" edge="1" parent="1">
          <mxGeometry width="50" height="50" relative="1" as="geometry">
            <mxPoint x="1400" y="949.6800000000001" as="sourcePoint" />
            <mxPoint x="1490" y="949.6800000000001" as="targetPoint" />
          </mxGeometry>
        </mxCell>
        <mxCell id="qb5ehnrfZqK407qkVEqP-24" value="" style="endArrow=classic;html=1;rounded=0;entryX=1;entryY=0.75;entryDx=0;entryDy=0;exitX=0;exitY=0.75;exitDx=0;exitDy=0;" edge="1" parent="1" source="qb5ehnrfZqK407qkVEqP-1" target="9ta0ZoeUBqeb0jHEq-jc-3">
          <mxGeometry width="50" height="50" relative="1" as="geometry">
            <mxPoint x="1087" y="880" as="sourcePoint" />
            <mxPoint x="997" y="880" as="targetPoint" />
          </mxGeometry>
        </mxCell>
        <mxCell id="qb5ehnrfZqK407qkVEqP-25" value="return entity object(s)" style="text;html=1;align=center;verticalAlign=middle;resizable=0;points=[];autosize=1;strokeColor=none;fillColor=none;" vertex="1" parent="1">
          <mxGeometry x="952" y="873" width="140" height="30" as="geometry" />
        </mxCell>
      </root>
    </mxGraphModel>
  </diagram>
</mxfile>
